<svg id="svg" version="1.1" xmlns="http://www.w3.org/2000/svg" xmlns:xlink="http://www.w3.org/1999/xlink" width="400" height="142.85714285714286" viewBox="0, 0, 400,142.85714285714286"><g id="svgg"><path id="path0" d="M17.966 1.800 C 17.042 2.793,16.671 3.414,17.143 3.181 C 17.614 2.947,16.200 4.469,14.000 6.563 C 11.800 8.656,10.386 10.201,10.857 9.996 C 11.329 9.791,10.043 11.207,8.000 13.143 C 5.957 15.079,4.671 16.496,5.143 16.291 C 5.614 16.087,4.856 16.983,3.457 18.282 C 1.216 20.363,-0.085 22.480,1.094 22.125 C 1.323 22.056,2.777 23.302,4.326 24.894 C 5.875 26.485,6.629 27.113,6.000 26.289 C 5.371 25.464,6.786 26.749,9.143 29.143 C 11.500 31.537,12.914 32.823,12.286 32.000 C 11.657 31.177,13.071 32.463,15.429 34.857 C 17.786 37.251,19.200 38.537,18.571 37.714 C 17.943 36.892,19.357 38.177,21.714 40.571 C 24.071 42.966,25.486 44.251,24.857 43.429 C 24.229 42.606,25.643 43.892,28.000 46.286 C 30.357 48.680,31.771 49.966,31.143 49.143 C 30.514 48.320,31.929 49.606,34.286 52.000 C 36.643 54.394,38.057 55.680,37.429 54.857 C 36.800 54.034,38.214 55.320,40.571 57.714 C 42.929 60.108,44.343 61.394,43.714 60.571 C 43.086 59.749,44.500 61.034,46.857 63.429 C 49.214 65.823,50.629 67.105,50.000 66.278 C 49.371 65.451,50.505 66.464,52.520 68.530 C 54.534 70.596,55.834 71.771,55.408 71.143 C 54.676 70.061,54.690 70.051,55.670 70.945 C 56.655 71.843,56.456 73.492,55.439 72.864 C 55.174 72.700,54.141 73.597,53.143 74.857 C 52.145 76.117,51.116 77.017,50.857 76.857 C 50.598 76.697,49.569 77.597,48.571 78.857 C 47.573 80.117,46.545 81.017,46.286 80.857 C 46.027 80.697,45.004 81.590,44.012 82.842 C 43.021 84.093,41.978 85.059,41.694 84.987 C 41.410 84.916,40.124 86.014,38.836 87.429 C 37.548 88.843,36.665 89.614,36.873 89.143 C 37.081 88.671,36.051 89.571,34.584 91.143 C 33.117 92.714,32.083 93.614,32.286 93.143 C 32.489 92.671,31.454 93.571,29.988 95.143 C 28.521 96.714,27.492 97.614,27.702 97.143 C 27.912 96.671,26.883 97.571,25.416 99.143 C 23.949 100.714,22.921 101.614,23.130 101.143 C 23.340 100.671,22.312 101.571,20.845 103.143 C 19.378 104.714,18.349 105.614,18.559 105.143 C 18.769 104.671,17.740 105.571,16.273 107.143 C 14.807 108.714,13.778 109.614,13.988 109.143 C 14.197 108.671,13.169 109.571,11.702 111.143 C 10.235 112.714,9.207 113.614,9.416 113.143 C 9.626 112.671,8.597 113.571,7.130 115.143 C 5.664 116.714,4.643 117.614,4.863 117.143 C 5.083 116.671,4.264 117.314,3.045 118.571 L 0.827 120.857 2.879 122.857 C 4.007 123.957,4.386 124.471,3.720 124.000 C 3.054 123.529,3.953 124.557,5.719 126.286 C 7.484 128.014,8.509 129.171,7.996 128.857 C 7.484 128.543,8.380 129.571,9.987 131.143 C 11.594 132.714,12.494 133.743,11.987 133.429 C 11.480 133.114,12.380 134.143,13.987 135.714 C 15.594 137.286,16.383 138.211,15.740 137.769 C 15.097 137.328,15.600 137.970,16.857 139.194 C 18.114 140.419,19.087 141.592,19.018 141.800 C 18.669 142.857,20.574 141.707,22.498 139.699 C 23.694 138.450,24.488 137.814,24.262 138.286 C 24.036 138.757,25.058 137.857,26.534 136.286 C 28.010 134.714,29.048 133.814,28.841 134.286 C 28.633 134.757,29.664 133.857,31.130 132.286 C 32.597 130.714,33.626 129.814,33.416 130.286 C 33.207 130.757,34.235 129.857,35.702 128.286 C 37.169 126.714,38.200 125.814,37.994 126.286 C 37.789 126.757,38.661 125.986,39.934 124.571 C 41.207 123.157,42.480 122.053,42.763 122.118 C 43.046 122.182,44.093 121.221,45.089 119.982 C 46.085 118.743,47.114 117.790,47.376 117.864 C 47.638 117.939,48.932 116.843,50.252 115.429 C 51.572 114.014,52.472 113.243,52.251 113.714 C 52.031 114.186,53.058 113.286,54.534 111.714 C 56.010 110.143,57.048 109.243,56.841 109.714 C 56.633 110.186,57.664 109.286,59.130 107.714 C 60.597 106.143,61.626 105.243,61.416 105.714 C 61.207 106.186,62.235 105.286,63.702 103.714 C 65.169 102.143,66.200 101.243,65.994 101.714 C 65.789 102.186,66.661 101.414,67.934 100.000 C 69.207 98.586,70.480 97.482,70.763 97.546 C 71.046 97.611,72.093 96.650,73.089 95.411 C 74.085 94.171,75.114 93.218,75.376 93.293 C 75.638 93.367,76.932 92.271,78.252 90.857 C 79.572 89.443,80.472 88.671,80.251 89.143 C 80.031 89.614,81.058 88.714,82.534 87.143 C 84.010 85.571,85.036 84.671,84.815 85.143 C 84.593 85.614,85.777 84.586,87.447 82.857 C 89.116 81.129,90.438 79.521,90.384 79.286 C 90.330 79.050,90.558 78.857,90.891 78.857 C 91.224 78.857,91.337 78.600,91.143 78.286 C 90.949 77.971,91.077 77.714,91.429 77.714 C 91.780 77.714,91.920 77.475,91.739 77.182 C 91.558 76.890,91.660 76.496,91.966 76.307 C 92.271 76.118,92.375 75.583,92.197 75.117 C 92.018 74.652,92.197 73.880,92.594 73.402 C 93.175 72.701,93.173 72.266,92.582 71.162 C 92.178 70.408,92.003 69.388,92.192 68.896 C 92.381 68.403,92.259 68.000,91.921 68.000 C 91.583 68.000,91.459 67.601,91.647 67.113 C 91.842 66.605,91.746 66.375,91.422 66.575 C 91.111 66.767,90.857 66.652,90.857 66.319 C 90.857 65.298,90.655 65.019,88.000 62.376 C 86.586 60.967,86.071 60.307,86.857 60.908 L 88.286 62.000 87.209 60.728 C 86.617 60.028,85.973 59.554,85.778 59.675 C 85.583 59.796,84.124 58.697,82.537 57.233 C 80.950 55.769,80.180 54.957,80.826 55.429 C 81.990 56.278,81.991 56.275,80.924 55.013 C 80.332 54.314,79.688 53.840,79.492 53.961 C 79.297 54.081,77.839 52.982,76.252 51.519 C 74.665 50.055,73.895 49.243,74.540 49.714 C 75.704 50.564,75.705 50.560,74.638 49.299 C 74.046 48.599,73.402 48.126,73.207 48.246 C 73.011 48.367,71.553 47.268,69.966 45.804 C 68.379 44.341,67.609 43.529,68.255 44.000 C 69.418 44.850,69.419 44.846,68.352 43.585 C 67.760 42.885,67.116 42.411,66.921 42.532 C 66.726 42.653,65.267 41.554,63.680 40.090 C 62.093 38.626,61.323 37.814,61.969 38.286 C 63.133 39.135,63.133 39.132,62.066 37.871 C 61.474 37.171,60.830 36.697,60.635 36.818 C 60.440 36.938,58.982 35.840,57.395 34.376 C 55.808 32.912,55.037 32.100,55.683 32.571 C 56.847 33.421,56.848 33.417,55.781 32.156 C 55.189 31.457,54.546 30.979,54.352 31.096 C 54.158 31.212,52.708 30.113,51.129 28.654 C 49.551 27.194,48.779 26.386,49.415 26.857 C 50.559 27.705,50.560 27.701,49.495 26.442 C 48.903 25.742,48.260 25.265,48.066 25.381 C 47.873 25.498,46.423 24.399,44.844 22.939 C 43.265 21.480,42.493 20.671,43.129 21.143 C 44.274 21.991,44.274 21.987,43.209 20.728 C 42.617 20.028,41.974 19.551,41.781 19.667 C 41.587 19.783,40.137 18.684,38.558 17.225 C 36.979 15.766,36.208 14.957,36.844 15.429 C 37.988 16.277,37.989 16.272,36.924 15.013 C 36.332 14.314,35.689 13.836,35.495 13.953 C 35.301 14.069,33.851 12.970,32.272 11.511 C 30.693 10.051,29.922 9.243,30.558 9.714 C 31.702 10.562,31.703 10.558,30.638 9.299 C 30.046 8.599,29.403 8.122,29.209 8.238 C 29.016 8.355,27.565 7.256,25.987 5.796 C 24.408 4.337,23.636 3.529,24.272 4.000 C 25.420 4.851,25.420 4.847,24.337 3.568 C 23.736 2.859,23.111 2.412,22.948 2.576 C 22.784 2.739,21.975 2.226,21.149 1.434 L 19.647 -0.005 17.966 1.800 M384.570 61.000 L 384.571 101.714 392.000 101.714 L 399.429 101.714 399.429 61.175 L 399.429 20.635 391.999 20.460 L 384.569 20.286 384.570 61.000 M160.173 42.468 C 160.014 42.725,159.533 42.800,159.103 42.635 C 158.674 42.470,158.168 42.586,157.979 42.891 C 157.790 43.197,157.414 43.310,157.143 43.143 C 156.872 42.975,156.486 43.104,156.286 43.429 C 156.085 43.753,155.682 43.871,155.389 43.690 C 155.097 43.509,154.857 43.649,154.857 44.000 C 154.857 44.351,154.600 44.480,154.286 44.286 C 153.971 44.091,153.714 44.220,153.714 44.571 C 153.714 44.923,153.457 45.051,153.143 44.857 C 152.829 44.663,152.571 44.791,152.571 45.143 C 152.571 45.494,152.314 45.623,152.000 45.429 C 151.686 45.234,151.429 45.363,151.429 45.714 C 151.429 46.066,151.170 46.193,150.853 45.998 C 150.537 45.802,150.124 46.042,149.936 46.532 C 149.748 47.021,149.405 47.305,149.174 47.162 C 148.942 47.019,148.192 47.661,147.506 48.589 C 146.820 49.517,145.943 50.214,145.558 50.138 C 145.172 50.062,144.916 50.307,144.989 50.681 C 145.062 51.056,144.483 51.865,143.703 52.478 C 142.924 53.091,142.286 53.850,142.286 54.164 C 142.286 54.478,141.884 54.889,141.392 55.078 C 140.901 55.266,140.659 55.679,140.855 55.996 C 141.050 56.312,140.923 56.571,140.571 56.571 C 140.220 56.571,140.091 56.829,140.286 57.143 C 140.480 57.457,140.351 57.714,140.000 57.714 C 139.649 57.714,139.520 57.971,139.714 58.286 C 139.909 58.600,139.780 58.857,139.429 58.857 C 139.077 58.857,138.949 59.114,139.143 59.429 C 139.337 59.743,139.232 60.000,138.909 60.000 C 138.586 60.000,138.470 60.386,138.650 60.857 C 138.831 61.329,138.680 61.714,138.313 61.714 C 137.947 61.714,137.795 61.954,137.976 62.246 C 138.156 62.539,138.054 62.933,137.749 63.122 C 137.443 63.311,137.333 63.830,137.504 64.277 C 137.675 64.723,137.628 65.392,137.398 65.763 C 137.023 66.370,136.622 69.770,136.662 72.000 C 136.670 72.471,136.686 73.950,136.696 75.286 C 136.707 76.621,136.957 77.714,137.253 77.714 C 137.549 77.714,137.628 78.229,137.429 78.857 C 137.225 79.498,137.326 80.000,137.658 80.000 C 137.983 80.000,138.102 80.386,137.921 80.857 C 137.740 81.329,137.892 81.714,138.258 81.714 C 138.625 81.714,138.770 81.964,138.582 82.269 C 138.148 82.971,139.830 86.286,140.620 86.286 C 140.945 86.286,141.071 86.511,140.901 86.786 C 140.495 87.444,143.290 91.198,146.060 93.714 C 147.271 94.814,147.881 95.186,147.416 94.540 C 146.952 93.894,147.312 94.151,148.218 95.111 C 149.124 96.072,149.683 96.471,149.462 96.000 C 149.240 95.529,149.481 95.657,149.998 96.286 C 150.515 96.914,151.177 97.364,151.469 97.286 C 151.761 97.207,152.000 97.415,152.000 97.748 C 152.000 98.081,152.257 98.194,152.571 98.000 C 152.886 97.806,153.143 97.934,153.143 98.286 C 153.143 98.637,153.400 98.766,153.714 98.571 C 154.029 98.377,154.286 98.483,154.286 98.805 C 154.286 99.128,154.671 99.245,155.143 99.064 C 155.614 98.883,156.000 99.035,156.000 99.401 C 156.000 99.768,156.257 99.909,156.571 99.714 C 156.886 99.520,157.143 99.651,157.143 100.005 C 157.143 100.388,157.605 100.502,158.286 100.286 C 158.989 100.062,159.429 100.183,159.429 100.600 C 159.429 101.015,159.913 101.149,160.685 100.948 C 161.375 100.767,162.268 100.891,162.668 101.223 C 163.103 101.584,164.607 101.687,166.412 101.480 C 170.530 101.006,172.802 100.685,173.143 100.528 C 173.300 100.456,173.686 100.347,174.000 100.285 C 174.314 100.223,175.469 99.771,176.566 99.280 C 177.663 98.789,178.756 98.509,178.994 98.656 C 179.233 98.804,179.429 98.609,179.429 98.224 C 179.429 97.839,179.579 97.674,179.762 97.857 C 179.945 98.040,180.597 97.688,181.211 97.074 C 182.685 95.601,183.429 96.162,183.429 98.748 L 183.429 100.857 190.000 100.857 L 196.571 100.857 196.571 84.462 C 196.571 73.208,196.375 67.946,195.946 67.681 C 195.602 67.468,195.438 66.682,195.581 65.933 C 195.724 65.184,195.590 64.571,195.283 64.571 C 194.975 64.571,194.858 64.057,195.023 63.429 C 195.187 62.800,195.061 62.286,194.743 62.286 C 194.424 62.286,194.311 61.900,194.492 61.429 C 194.673 60.957,194.590 60.571,194.306 60.571 C 193.777 60.571,192.827 58.338,193.030 57.571 C 193.092 57.336,192.843 57.143,192.476 57.143 C 192.110 57.143,191.977 56.975,192.182 56.771 C 192.386 56.566,192.108 56.033,191.563 55.586 C 190.988 55.114,190.932 54.961,191.429 55.222 C 191.900 55.469,190.614 54.019,188.571 52.000 C 186.529 49.981,185.218 48.552,185.660 48.824 C 186.212 49.165,186.333 49.111,186.049 48.650 C 185.821 48.282,185.428 48.109,185.175 48.266 C 184.922 48.422,184.034 47.919,183.201 47.147 C 182.368 46.375,181.554 45.764,181.390 45.788 C 180.706 45.891,177.714 44.393,177.714 43.949 C 177.714 43.682,177.329 43.612,176.857 43.793 C 176.386 43.974,176.000 43.846,176.000 43.508 C 176.000 43.170,175.614 43.041,175.143 43.222 C 174.671 43.403,174.286 43.290,174.286 42.972 C 174.286 42.653,173.771 42.527,173.143 42.692 C 172.514 42.856,172.000 42.768,172.000 42.495 C 172.000 41.866,160.562 41.839,160.173 42.468 M222.455 42.475 C 222.293 42.736,221.546 42.795,220.795 42.607 C 219.960 42.397,219.429 42.514,219.429 42.907 C 219.429 43.261,219.043 43.403,218.571 43.222 C 218.100 43.041,217.714 43.170,217.714 43.508 C 217.714 43.846,217.329 43.974,216.857 43.793 C 216.386 43.612,216.000 43.756,216.000 44.113 C 216.000 44.470,215.841 44.603,215.646 44.408 C 215.452 44.214,214.917 44.430,214.457 44.890 C 213.998 45.349,213.386 45.579,213.097 45.400 C 212.808 45.222,212.571 45.363,212.571 45.714 C 212.571 46.066,212.341 46.211,212.060 46.037 C 211.779 45.863,211.400 46.107,211.219 46.580 C 211.037 47.053,210.689 47.386,210.444 47.320 C 209.868 47.166,204.089 53.041,204.456 53.408 C 204.609 53.562,204.314 53.849,203.799 54.046 C 203.285 54.244,203.006 54.636,203.180 54.917 C 203.354 55.198,203.209 55.429,202.857 55.429 C 202.506 55.429,202.359 55.657,202.531 55.935 C 202.704 56.214,202.465 56.757,202.000 57.143 C 201.535 57.528,201.285 58.054,201.444 58.311 C 201.603 58.568,201.467 58.942,201.143 59.143 C 200.818 59.343,200.701 59.747,200.882 60.039 C 201.062 60.332,200.910 60.571,200.544 60.571 C 200.163 60.571,200.031 60.970,200.234 61.501 C 200.431 62.012,200.394 62.719,200.153 63.072 C 199.912 63.425,199.785 72.119,199.872 82.392 L 200.030 101.070 205.872 101.249 L 211.714 101.429 211.555 84.364 C 211.441 72.211,211.583 67.074,212.047 66.514 C 212.406 66.082,212.553 65.348,212.375 64.883 C 212.196 64.417,212.300 63.882,212.606 63.693 C 212.911 63.504,213.014 63.110,212.833 62.818 C 212.652 62.525,212.791 62.286,213.143 62.286 C 213.494 62.286,213.623 62.029,213.429 61.714 C 213.234 61.400,213.363 61.143,213.714 61.143 C 214.066 61.143,214.219 60.925,214.054 60.659 C 213.890 60.393,214.517 59.445,215.449 58.552 C 216.381 57.659,217.143 57.155,217.143 57.431 C 217.143 57.707,217.520 57.434,217.982 56.824 C 218.443 56.213,218.829 55.926,218.839 56.184 C 218.849 56.442,219.261 56.249,219.755 55.755 C 220.249 55.261,221.213 54.830,221.898 54.798 C 227.248 54.541,230.857 54.650,230.857 55.067 C 230.857 55.339,231.371 55.427,232.000 55.263 C 232.629 55.099,233.143 55.212,233.143 55.516 C 233.143 55.819,233.400 55.909,233.714 55.714 C 234.029 55.520,234.286 55.676,234.286 56.062 C 234.286 56.447,234.453 56.594,234.658 56.390 C 234.862 56.185,235.396 56.464,235.843 57.009 C 236.324 57.596,236.476 57.650,236.216 57.143 C 235.973 56.671,236.793 57.314,238.037 58.571 C 239.282 59.829,240.217 61.050,240.116 61.286 C 240.015 61.521,240.220 61.714,240.571 61.714 C 240.923 61.714,241.051 61.971,240.857 62.286 C 240.663 62.600,240.804 62.857,241.170 62.857 C 241.537 62.857,241.689 63.243,241.508 63.714 C 241.327 64.186,241.364 64.571,241.589 64.571 C 241.815 64.571,241.920 72.864,241.822 83.000 L 241.644 101.429 248.169 101.429 L 254.695 101.429 254.468 82.704 C 254.344 72.405,254.100 63.610,253.927 63.159 C 253.754 62.709,253.780 62.071,253.983 61.742 C 254.187 61.412,254.053 61.143,253.687 61.143 C 253.320 61.143,253.169 60.757,253.350 60.286 C 253.530 59.814,253.402 59.429,253.064 59.429 C 252.726 59.429,252.597 59.043,252.778 58.571 C 252.959 58.100,252.843 57.714,252.520 57.714 C 252.197 57.714,252.091 57.457,252.286 57.143 C 252.480 56.829,252.351 56.571,252.000 56.571 C 251.649 56.571,251.520 56.314,251.714 56.000 C 251.909 55.686,251.752 55.429,251.367 55.429 C 250.982 55.429,250.827 55.268,251.023 55.072 C 251.219 54.876,250.812 54.213,250.119 53.600 C 249.425 52.986,249.243 52.674,249.714 52.905 C 250.799 53.438,250.594 53.225,247.321 50.418 C 245.847 49.155,244.818 47.943,245.035 47.727 C 245.251 47.510,245.171 47.408,244.857 47.498 C 244.067 47.727,240.571 45.808,240.571 45.146 C 240.571 44.850,240.144 44.771,239.621 44.972 C 239.098 45.173,238.816 45.101,238.994 44.811 C 239.173 44.522,238.644 44.245,237.820 44.196 C 236.995 44.146,236.232 43.839,236.123 43.513 C 236.015 43.188,235.557 43.063,235.106 43.236 C 234.655 43.409,234.286 43.261,234.286 42.907 C 234.286 42.506,233.747 42.399,232.857 42.622 C 232.071 42.820,231.429 42.750,231.429 42.467 C 231.429 41.821,222.855 41.829,222.455 42.475 M282.469 42.452 C 282.315 42.700,281.719 42.754,281.143 42.571 C 280.567 42.389,279.928 42.511,279.723 42.843 C 279.518 43.175,279.110 43.299,278.818 43.118 C 278.525 42.938,278.286 43.090,278.286 43.456 C 278.286 43.822,277.900 43.974,277.429 43.793 C 276.957 43.612,276.571 43.729,276.571 44.052 C 276.571 44.375,276.314 44.480,276.000 44.286 C 275.686 44.091,275.429 44.220,275.429 44.571 C 275.429 44.923,275.171 45.051,274.857 44.857 C 274.543 44.663,274.286 44.791,274.286 45.143 C 274.286 45.494,274.029 45.623,273.714 45.429 C 273.400 45.234,273.143 45.363,273.143 45.714 C 273.143 46.066,272.913 46.211,272.631 46.037 C 272.350 45.863,271.971 46.107,271.790 46.580 C 271.609 47.053,271.230 47.373,270.949 47.291 C 270.667 47.210,269.869 47.786,269.175 48.571 C 268.481 49.357,268.101 49.614,268.331 49.143 C 268.560 48.671,267.946 49.032,266.966 49.945 C 265.986 50.857,265.311 51.810,265.467 52.062 C 265.623 52.315,265.102 52.946,264.309 53.466 C 263.516 53.986,262.992 54.613,263.144 54.860 C 263.297 55.107,263.021 55.463,262.532 55.650 C 262.042 55.838,261.802 56.251,261.998 56.567 C 262.193 56.884,262.066 57.143,261.714 57.143 C 261.363 57.143,261.234 57.400,261.429 57.714 C 261.623 58.029,261.494 58.286,261.143 58.286 C 260.791 58.286,260.663 58.543,260.857 58.857 C 261.051 59.171,260.923 59.429,260.571 59.429 C 260.220 59.429,260.080 59.668,260.261 59.961 C 260.442 60.253,260.325 60.657,260.000 60.857 C 259.675 61.058,259.547 61.443,259.714 61.714 C 259.882 61.985,259.753 62.371,259.429 62.571 C 259.104 62.772,258.975 63.158,259.143 63.429 C 259.310 63.699,259.185 64.083,258.864 64.281 C 258.544 64.479,258.439 65.269,258.631 66.035 C 258.833 66.839,258.731 67.429,258.390 67.429 C 257.622 67.429,257.638 74.905,258.409 75.850 C 258.726 76.239,258.839 76.938,258.660 77.403 C 258.482 77.868,258.599 78.412,258.921 78.611 C 259.243 78.810,259.368 79.332,259.200 79.772 C 259.031 80.212,259.170 80.571,259.508 80.571 C 259.846 80.571,259.974 80.957,259.793 81.429 C 259.612 81.900,259.741 82.286,260.079 82.286 C 260.417 82.286,260.541 82.685,260.353 83.173 C 260.131 83.752,260.243 83.918,260.675 83.650 C 261.121 83.375,261.214 83.561,260.961 84.222 C 260.707 84.882,260.800 85.069,261.247 84.793 C 261.693 84.517,261.786 84.704,261.532 85.365 C 261.309 85.947,261.385 86.203,261.721 85.996 C 262.239 85.676,262.539 86.462,262.339 87.614 C 262.294 87.873,262.521 87.922,262.843 87.723 C 263.402 87.378,263.695 88.205,263.449 89.429 C 263.385 89.743,263.517 89.816,263.743 89.591 C 264.193 89.141,266.658 91.997,266.429 92.703 C 266.350 92.945,266.484 93.079,266.725 93.000 C 267.431 92.771,270.288 95.236,269.838 95.686 C 269.613 95.911,269.686 96.043,270.000 95.980 C 271.223 95.733,272.051 96.027,271.706 96.586 C 271.506 96.908,271.561 97.101,271.826 97.014 C 272.525 96.787,277.143 98.944,277.143 99.497 C 277.143 99.754,277.529 99.816,278.000 99.635 C 278.471 99.454,278.857 99.583,278.857 99.921 C 278.857 100.259,279.243 100.388,279.714 100.207 C 280.186 100.026,280.571 100.180,280.571 100.549 C 280.571 100.959,281.014 101.079,281.709 100.859 C 282.335 100.660,283.171 100.701,283.566 100.949 C 284.670 101.642,292.571 101.716,292.571 101.033 C 292.571 100.712,292.990 100.610,293.501 100.806 C 294.012 101.002,294.772 100.879,295.190 100.532 C 295.608 100.185,296.218 100.067,296.546 100.270 C 296.874 100.473,297.143 100.375,297.143 100.052 C 297.143 99.729,297.529 99.612,298.000 99.793 C 298.471 99.974,298.857 99.822,298.857 99.456 C 298.857 99.090,299.114 98.949,299.429 99.143 C 299.743 99.337,300.000 99.209,300.000 98.857 C 300.000 98.506,300.257 98.377,300.571 98.571 C 300.886 98.766,301.143 98.637,301.143 98.286 C 301.143 97.934,301.400 97.806,301.714 98.000 C 302.029 98.194,302.286 98.066,302.286 97.714 C 302.286 97.363,302.521 97.221,302.808 97.398 C 303.096 97.576,303.446 97.398,303.587 97.004 C 303.728 96.609,304.057 96.485,304.317 96.729 C 304.578 96.972,304.468 98.064,304.074 99.154 C 303.680 100.244,303.517 101.395,303.712 101.711 C 303.908 102.027,303.803 102.286,303.480 102.286 C 303.157 102.286,303.041 102.671,303.222 103.143 C 303.403 103.614,303.251 104.000,302.885 104.000 C 302.518 104.000,302.369 104.244,302.554 104.543 C 302.738 104.841,302.370 105.363,301.736 105.703 C 301.102 106.042,300.645 106.634,300.720 107.017 C 300.795 107.401,300.543 107.653,300.160 107.577 C 299.776 107.502,299.185 107.959,298.846 108.593 C 298.506 109.227,297.984 109.595,297.686 109.411 C 297.387 109.226,297.143 109.363,297.143 109.714 C 297.143 110.066,296.886 110.194,296.571 110.000 C 296.257 109.806,296.000 109.934,296.000 110.286 C 296.000 110.637,295.761 110.777,295.468 110.596 C 295.175 110.415,294.774 110.529,294.576 110.850 C 294.378 111.170,293.617 111.282,292.884 111.099 C 292.152 110.915,291.374 111.055,291.154 111.410 C 290.859 111.888,290.548 111.883,289.957 111.393 C 289.514 111.025,288.517 110.890,287.722 111.090 C 286.825 111.315,286.286 111.209,286.286 110.807 C 286.286 110.453,285.900 110.311,285.429 110.492 C 284.957 110.673,284.571 110.529,284.571 110.173 C 284.571 109.816,284.404 109.691,284.199 109.896 C 283.995 110.101,283.461 109.822,283.014 109.277 C 282.477 108.622,282.329 108.576,282.579 109.143 C 282.786 109.614,282.397 109.357,281.714 108.571 C 281.031 107.786,280.665 107.508,280.901 107.954 C 281.216 108.549,281.077 108.668,280.379 108.401 C 279.856 108.200,279.429 108.300,279.429 108.623 C 279.429 108.946,279.171 109.051,278.857 108.857 C 278.543 108.663,278.286 108.791,278.286 109.143 C 278.286 109.494,278.029 109.623,277.714 109.429 C 277.400 109.234,277.143 109.363,277.143 109.714 C 277.143 110.066,276.886 110.194,276.571 110.000 C 276.257 109.806,276.000 109.919,276.000 110.252 C 276.000 110.585,275.614 110.857,275.143 110.857 C 274.671 110.857,274.286 111.129,274.286 111.462 C 274.286 111.795,274.029 111.909,273.714 111.714 C 273.400 111.520,273.143 111.649,273.143 112.000 C 273.143 112.351,272.886 112.480,272.571 112.286 C 272.257 112.091,272.000 112.220,272.000 112.571 C 272.000 112.923,271.765 113.065,271.479 112.888 C 271.192 112.711,271.015 112.956,271.085 113.432 C 271.217 114.334,272.338 115.678,273.029 115.764 C 274.237 115.913,275.373 116.770,275.051 117.291 C 274.839 117.634,274.954 117.722,275.319 117.496 C 275.671 117.279,276.461 117.603,277.074 118.217 C 277.688 118.831,278.340 119.183,278.524 119.000 C 278.707 118.817,278.857 118.982,278.857 119.367 C 278.857 119.752,279.114 119.909,279.429 119.714 C 279.743 119.520,280.000 119.625,280.000 119.948 C 280.000 120.271,280.386 120.388,280.857 120.207 C 281.329 120.026,281.714 120.154,281.714 120.492 C 281.714 120.830,282.100 120.959,282.571 120.778 C 283.043 120.597,283.429 120.710,283.429 121.028 C 283.429 121.347,283.943 121.473,284.571 121.308 C 285.200 121.144,285.714 121.232,285.714 121.505 C 285.714 122.084,294.416 122.054,295.360 121.471 C 295.712 121.253,296.239 121.223,296.532 121.404 C 296.825 121.585,297.228 121.467,297.429 121.143 C 297.629 120.818,298.015 120.690,298.286 120.857 C 298.557 121.025,298.942 120.896,299.143 120.571 C 299.343 120.247,299.747 120.129,300.039 120.310 C 300.332 120.491,300.571 120.351,300.571 120.000 C 300.571 119.649,300.808 119.507,301.097 119.686 C 301.386 119.864,301.998 119.635,302.457 119.175 C 302.917 118.716,303.452 118.499,303.646 118.694 C 303.841 118.888,304.000 118.748,304.000 118.381 C 304.000 118.014,304.324 117.714,304.720 117.714 C 305.116 117.714,305.767 117.190,306.167 116.549 C 306.567 115.908,307.109 115.517,307.371 115.679 C 307.902 116.007,309.874 114.064,309.445 113.636 C 309.296 113.486,309.930 112.536,310.855 111.523 C 311.780 110.511,312.517 109.549,312.494 109.387 C 312.471 109.225,313.044 107.753,313.766 106.117 C 314.488 104.481,315.017 102.912,314.940 102.629 C 314.863 102.346,314.975 101.704,315.189 101.200 C 315.807 99.750,315.928 92.594,315.341 92.232 C 315.050 92.051,314.967 91.411,315.158 90.809 C 315.361 90.169,315.236 89.714,314.857 89.714 C 314.469 89.714,314.354 89.256,314.571 88.571 C 314.771 87.943,314.714 87.429,314.446 87.429 C 314.177 87.429,313.919 86.914,313.871 86.286 C 313.824 85.657,314.042 85.143,314.355 85.143 C 314.668 85.143,314.766 84.886,314.571 84.571 C 314.377 84.257,314.506 84.000,314.857 84.000 C 315.209 84.000,315.337 83.743,315.143 83.429 C 314.949 83.114,315.054 82.857,315.377 82.857 C 315.700 82.857,315.816 82.471,315.635 82.000 C 315.454 81.529,315.583 81.143,315.921 81.143 C 316.259 81.143,316.388 80.757,316.207 80.286 C 316.026 79.814,316.154 79.429,316.492 79.429 C 316.830 79.429,316.964 79.055,316.789 78.599 C 316.613 78.142,316.639 77.496,316.845 77.163 C 317.387 76.285,317.527 65.714,316.996 65.714 C 316.751 65.714,316.711 65.071,316.908 64.286 C 317.137 63.373,317.026 62.857,316.600 62.857 C 316.233 62.857,316.091 62.600,316.286 62.286 C 316.480 61.971,316.339 61.714,315.973 61.714 C 315.606 61.714,315.454 61.329,315.635 60.857 C 315.816 60.386,315.700 60.000,315.377 60.000 C 315.054 60.000,314.949 59.743,315.143 59.429 C 315.337 59.114,315.209 58.857,314.857 58.857 C 314.506 58.857,314.377 58.600,314.571 58.286 C 314.766 57.971,314.609 57.714,314.224 57.714 C 313.839 57.714,313.691 57.547,313.896 57.342 C 314.101 57.138,313.822 56.604,313.277 56.157 C 312.622 55.619,312.576 55.472,313.143 55.721 C 313.614 55.929,313.357 55.540,312.571 54.857 C 311.786 54.174,311.529 53.792,312.000 54.008 C 312.471 54.225,312.038 53.727,311.037 52.903 C 310.036 52.078,308.276 50.317,307.126 48.988 C 305.976 47.659,305.230 46.957,305.468 47.429 C 305.706 47.900,305.215 47.564,304.377 46.682 C 303.538 45.800,302.596 45.237,302.283 45.430 C 301.970 45.624,301.714 45.494,301.714 45.143 C 301.714 44.791,301.457 44.663,301.143 44.857 C 300.829 45.051,300.571 44.923,300.571 44.571 C 300.571 44.220,300.314 44.091,300.000 44.286 C 299.686 44.480,299.429 44.339,299.429 43.973 C 299.429 43.606,299.043 43.454,298.571 43.635 C 298.100 43.816,297.714 43.688,297.714 43.350 C 297.714 43.011,297.329 42.883,296.857 43.064 C 296.386 43.245,296.000 43.139,296.000 42.828 C 296.000 42.512,295.373 42.421,294.571 42.622 C 293.786 42.820,293.143 42.760,293.143 42.491 C 293.143 41.874,282.849 41.837,282.469 42.452 M345.888 42.468 C 345.729 42.725,345.206 42.785,344.727 42.601 C 344.247 42.417,343.502 42.559,343.070 42.917 C 342.639 43.275,342.286 43.377,342.286 43.143 C 342.286 42.909,341.900 43.037,341.429 43.429 C 340.957 43.820,340.567 43.916,340.563 43.641 C 340.558 43.367,340.342 43.477,340.083 43.886 C 339.824 44.294,339.063 44.670,338.392 44.721 C 337.721 44.771,337.039 45.160,336.876 45.585 C 336.713 46.010,336.321 46.198,336.004 46.002 C 335.688 45.807,335.429 45.934,335.429 46.286 C 335.429 46.637,335.198 46.782,334.917 46.608 C 334.636 46.435,334.252 46.693,334.064 47.182 C 333.876 47.672,333.492 47.930,333.209 47.755 C 332.927 47.581,332.271 48.087,331.752 48.880 C 331.228 49.679,330.524 50.147,330.172 49.930 C 329.808 49.704,329.697 49.796,329.913 50.145 C 330.120 50.480,329.508 51.410,328.555 52.212 C 327.601 53.015,326.851 53.845,326.888 54.057 C 326.925 54.270,326.611 54.656,326.192 54.915 C 325.772 55.175,325.416 55.589,325.400 55.836 C 325.326 57.025,324.433 58.857,323.928 58.857 C 323.616 58.857,323.520 59.114,323.714 59.429 C 323.909 59.743,323.780 60.000,323.429 60.000 C 323.077 60.000,322.949 60.257,323.143 60.571 C 323.337 60.886,323.206 61.143,322.852 61.143 C 322.469 61.143,322.355 61.605,322.571 62.286 C 322.775 62.927,322.674 63.429,322.342 63.429 C 322.017 63.429,321.888 63.788,322.057 64.228 C 322.226 64.668,322.100 65.190,321.778 65.389 C 321.456 65.588,321.345 66.147,321.531 66.632 C 321.717 67.117,321.535 68.526,321.127 69.763 C 320.519 71.606,320.518 72.262,321.126 73.397 C 321.534 74.159,321.728 75.313,321.559 75.962 C 321.389 76.611,321.494 77.292,321.791 77.476 C 322.089 77.660,322.176 78.303,321.985 78.905 C 321.777 79.560,321.907 80.000,322.308 80.000 C 322.677 80.000,322.831 80.386,322.650 80.857 C 322.470 81.329,322.586 81.714,322.909 81.714 C 323.232 81.714,323.337 81.971,323.143 82.286 C 322.949 82.600,323.090 82.857,323.456 82.857 C 323.823 82.857,323.970 83.255,323.782 83.744 C 323.595 84.232,323.677 84.485,323.965 84.307 C 324.435 84.017,325.275 85.576,325.031 86.286 C 324.977 86.443,325.618 87.311,326.456 88.215 C 327.293 89.119,327.814 90.147,327.612 90.500 C 327.410 90.854,327.442 90.966,327.683 90.749 C 327.924 90.533,329.155 91.561,330.418 93.035 C 333.225 96.308,333.438 96.513,332.905 95.429 C 332.674 94.957,332.986 95.139,333.600 95.833 C 334.213 96.527,334.876 96.934,335.072 96.738 C 335.268 96.541,335.429 96.681,335.429 97.048 C 335.429 97.414,335.621 97.684,335.857 97.647 C 336.992 97.468,337.747 97.771,337.433 98.279 C 337.232 98.603,337.462 98.699,337.970 98.504 C 338.459 98.316,338.857 98.462,338.857 98.830 C 338.857 99.196,339.114 99.337,339.429 99.143 C 339.743 98.949,340.000 99.054,340.000 99.377 C 340.000 99.700,340.386 99.816,340.857 99.635 C 341.329 99.454,341.714 99.567,341.714 99.885 C 341.714 100.204,342.229 100.330,342.857 100.166 C 343.486 100.001,344.000 100.118,344.000 100.426 C 344.000 100.733,344.643 100.861,345.429 100.711 C 346.214 100.561,346.857 100.680,346.857 100.976 C 346.857 101.608,354.265 101.628,355.234 100.998 C 355.599 100.761,356.280 100.715,356.748 100.894 C 357.216 101.074,357.762 100.957,357.960 100.635 C 358.159 100.313,358.700 100.195,359.161 100.372 C 359.623 100.549,360.000 100.417,360.000 100.079 C 360.000 99.741,360.386 99.612,360.857 99.793 C 361.329 99.974,361.714 99.822,361.714 99.456 C 361.714 99.090,361.971 98.949,362.286 99.143 C 362.600 99.337,362.857 99.209,362.857 98.857 C 362.857 98.506,363.114 98.377,363.429 98.571 C 363.743 98.766,364.000 98.637,364.000 98.286 C 364.000 97.934,364.257 97.806,364.571 98.000 C 364.886 98.194,365.143 98.066,365.143 97.714 C 365.143 97.363,365.400 97.234,365.714 97.429 C 366.029 97.623,366.286 97.509,366.286 97.177 C 366.286 96.844,366.644 96.571,367.082 96.571 C 367.520 96.571,368.027 96.183,368.209 95.709 C 368.391 95.235,368.740 94.896,368.984 94.957 C 369.229 95.017,370.707 93.812,372.270 92.278 C 373.833 90.744,374.733 89.688,374.270 89.931 C 373.807 90.174,374.007 89.862,374.714 89.238 C 376.007 88.097,376.495 87.055,375.429 87.714 C 375.114 87.909,374.857 87.768,374.857 87.401 C 374.857 87.035,374.471 86.883,374.000 87.064 C 373.529 87.245,373.143 87.152,373.143 86.857 C 373.143 86.563,372.715 86.486,372.192 86.686 C 371.497 86.953,371.368 86.845,371.714 86.286 C 372.060 85.726,371.931 85.618,371.237 85.885 C 370.713 86.086,370.286 85.974,370.286 85.635 C 370.286 85.297,369.900 85.169,369.429 85.350 C 368.957 85.530,368.571 85.414,368.571 85.091 C 368.571 84.768,368.314 84.663,368.000 84.857 C 367.686 85.051,367.429 84.910,367.429 84.544 C 367.429 84.178,367.043 84.026,366.571 84.207 C 366.100 84.388,365.714 84.295,365.714 84.000 C 365.714 83.705,365.286 83.629,364.763 83.829 C 364.090 84.088,363.943 83.983,364.261 83.469 C 365.054 82.186,362.443 83.867,361.458 85.274 C 360.970 85.970,360.564 86.290,360.554 85.984 C 360.544 85.679,360.272 85.884,359.948 86.441 C 359.623 86.997,359.117 87.303,358.822 87.121 C 358.527 86.939,358.286 87.054,358.286 87.377 C 358.286 87.700,357.900 87.816,357.429 87.635 C 356.957 87.454,356.571 87.618,356.571 88.000 C 356.571 88.382,356.186 88.546,355.714 88.365 C 355.243 88.184,354.857 88.232,354.857 88.472 C 354.857 88.711,353.057 88.908,350.857 88.908 C 348.657 88.908,346.857 88.676,346.857 88.393 C 346.857 88.109,346.471 88.026,346.000 88.207 C 345.529 88.388,345.143 88.259,345.143 87.921 C 345.143 87.583,344.744 87.459,344.256 87.647 C 343.768 87.834,343.503 87.770,343.667 87.506 C 343.830 87.241,343.313 86.728,342.517 86.365 C 341.374 85.844,341.151 85.857,341.455 86.424 C 341.667 86.819,341.233 86.428,340.491 85.555 C 339.750 84.681,338.371 83.312,337.429 82.513 C 336.486 81.714,336.100 81.226,336.571 81.430 C 337.144 81.676,337.100 81.529,336.437 80.986 C 335.892 80.539,335.614 80.005,335.818 79.801 C 336.023 79.596,335.875 79.429,335.490 79.429 C 335.105 79.429,334.949 79.171,335.143 78.857 C 335.337 78.543,335.224 78.286,334.891 78.286 C 334.558 78.286,334.286 78.020,334.286 77.695 C 334.286 77.313,337.071 77.125,342.143 77.165 C 348.821 77.218,363.845 76.892,376.857 76.412 L 380.286 76.286 380.298 71.000 C 380.305 68.093,380.095 65.714,379.831 65.714 C 379.567 65.714,379.515 65.200,379.714 64.571 C 379.936 63.871,379.817 63.429,379.406 63.429 C 379.037 63.429,378.883 63.043,379.064 62.571 C 379.245 62.100,379.152 61.714,378.857 61.714 C 378.563 61.714,378.470 61.329,378.650 60.857 C 378.831 60.386,378.680 60.000,378.313 60.000 C 377.947 60.000,377.806 59.743,378.000 59.429 C 378.194 59.114,378.066 58.857,377.714 58.857 C 377.363 58.857,377.234 58.600,377.429 58.286 C 377.623 57.971,377.467 57.714,377.081 57.714 C 376.696 57.714,376.548 57.547,376.753 57.342 C 376.958 57.138,376.679 56.604,376.134 56.157 C 375.479 55.619,375.433 55.472,376.000 55.721 C 376.471 55.929,376.214 55.540,375.429 54.857 C 374.643 54.174,374.386 53.792,374.857 54.008 C 375.329 54.225,374.891 53.724,373.885 52.895 C 372.878 52.067,370.973 50.176,369.651 48.694 C 368.329 47.212,367.481 46.398,367.767 46.884 C 368.111 47.471,367.974 47.432,367.357 46.766 C 366.846 46.214,366.267 45.923,366.071 46.120 C 365.875 46.316,365.714 46.161,365.714 45.776 C 365.714 45.391,365.457 45.234,365.143 45.429 C 364.829 45.623,364.571 45.494,364.571 45.143 C 364.571 44.791,364.314 44.663,364.000 44.857 C 363.686 45.051,363.429 44.946,363.429 44.623 C 363.429 44.300,363.001 44.200,362.478 44.401 C 361.783 44.667,361.654 44.560,362.000 44.000 C 362.346 43.440,362.217 43.333,361.522 43.599 C 360.999 43.800,360.571 43.698,360.571 43.372 C 360.571 43.040,360.069 42.939,359.429 43.143 C 358.800 43.342,358.286 43.255,358.286 42.949 C 358.286 42.643,357.771 42.527,357.143 42.692 C 356.514 42.856,356.000 42.768,356.000 42.495 C 356.000 41.866,346.276 41.839,345.888 42.468 M371.429 50.000 C 372.495 51.100,373.496 52.000,373.653 52.000 C 373.810 52.000,373.066 51.100,372.000 50.000 C 370.934 48.900,369.933 48.000,369.776 48.000 C 369.619 48.000,370.362 48.900,371.429 50.000 M168.314 54.332 C 168.524 54.672,169.311 54.795,170.062 54.607 C 170.814 54.418,171.429 54.518,171.429 54.828 C 171.429 55.139,171.856 55.229,172.379 55.028 C 173.063 54.766,173.201 54.872,172.871 55.406 C 172.563 55.905,172.673 56.061,173.206 55.881 C 173.643 55.734,174.340 56.022,174.757 56.521 C 175.362 57.247,175.438 57.257,175.137 56.571 C 174.930 56.100,175.515 56.589,176.437 57.658 C 177.358 58.727,178.868 60.270,179.793 61.087 C 180.717 61.903,181.194 62.443,180.852 62.286 C 180.511 62.129,180.683 62.418,181.234 62.929 C 181.786 63.440,182.077 64.019,181.880 64.215 C 181.684 64.411,181.816 64.571,182.173 64.571 C 182.529 64.571,182.673 64.957,182.492 65.429 C 182.311 65.900,182.465 66.286,182.835 66.286 C 183.246 66.286,183.365 66.729,183.143 67.429 C 182.943 68.057,183.036 68.571,183.349 68.571 C 184.053 68.571,184.112 74.720,183.413 75.153 C 183.135 75.325,183.052 75.843,183.229 76.304 C 183.406 76.765,183.266 77.143,182.918 77.143 C 182.570 77.143,182.316 77.336,182.353 77.571 C 182.520 78.625,182.215 79.418,181.286 80.347 C 180.736 80.897,180.286 81.543,180.286 81.784 C 180.286 82.405,177.535 84.885,177.028 84.720 C 176.796 84.645,176.328 85.102,175.988 85.736 C 175.649 86.370,175.127 86.738,174.828 86.554 C 174.530 86.369,174.286 86.506,174.286 86.857 C 174.286 87.209,174.029 87.337,173.714 87.143 C 173.400 86.949,173.143 87.077,173.143 87.429 C 173.143 87.780,172.903 87.920,172.611 87.739 C 172.318 87.558,171.915 87.675,171.714 88.000 C 171.514 88.325,171.099 88.435,170.793 88.246 C 170.486 88.057,169.925 88.144,169.546 88.441 C 168.609 89.174,162.857 89.225,162.857 88.501 C 162.857 88.183,162.343 88.086,161.714 88.286 C 161.033 88.502,160.571 88.388,160.571 88.005 C 160.571 87.651,160.314 87.520,160.000 87.714 C 159.686 87.909,159.429 87.780,159.429 87.429 C 159.429 87.077,159.171 86.949,158.857 87.143 C 158.543 87.337,158.286 87.209,158.286 86.857 C 158.286 86.506,158.029 86.377,157.716 86.571 C 157.402 86.764,155.924 85.726,154.430 84.264 C 152.936 82.802,152.100 81.778,152.571 81.988 C 153.043 82.198,152.914 81.948,152.286 81.431 C 151.657 80.914,151.207 80.252,151.286 79.960 C 151.364 79.668,151.156 79.429,150.823 79.429 C 150.491 79.429,150.377 79.171,150.571 78.857 C 150.766 78.543,150.625 78.286,150.258 78.286 C 149.892 78.286,149.740 77.900,149.921 77.429 C 150.102 76.957,149.971 76.571,149.630 76.571 C 149.289 76.571,149.144 76.057,149.308 75.429 C 149.473 74.800,149.374 74.286,149.089 74.286 C 148.352 74.286,148.445 69.860,149.193 69.398 C 149.534 69.187,149.687 68.529,149.532 67.936 C 149.377 67.343,149.487 66.712,149.777 66.533 C 150.067 66.353,150.169 65.988,150.004 65.721 C 149.839 65.454,150.080 64.859,150.539 64.400 C 150.998 63.940,151.215 63.405,151.020 63.211 C 150.826 63.016,150.967 62.857,151.333 62.857 C 151.700 62.857,151.936 62.634,151.857 62.361 C 151.779 62.089,152.357 61.298,153.143 60.603 C 153.929 59.909,154.186 59.539,153.714 59.780 C 152.978 60.157,152.967 60.084,153.636 59.259 C 154.065 58.731,154.630 58.431,154.893 58.594 C 155.156 58.756,155.654 58.360,156.000 57.714 C 156.346 57.068,156.873 56.690,157.172 56.875 C 157.470 57.059,157.714 56.923,157.714 56.571 C 157.714 56.220,157.971 56.091,158.286 56.286 C 158.600 56.480,158.857 56.351,158.857 56.000 C 158.857 55.649,159.092 55.506,159.380 55.684 C 159.667 55.862,159.990 55.744,160.097 55.423 C 160.204 55.101,161.154 54.729,162.207 54.596 C 163.261 54.462,164.267 54.210,164.442 54.034 C 165.007 53.469,167.920 53.693,168.314 54.332 M292.571 54.932 C 292.571 55.186,292.957 55.245,293.429 55.064 C 293.900 54.883,294.286 55.035,294.286 55.401 C 294.286 55.768,294.543 55.909,294.857 55.714 C 295.171 55.520,295.429 55.649,295.429 56.000 C 295.429 56.351,295.654 56.499,295.930 56.329 C 296.560 55.940,301.690 59.808,301.782 60.740 C 301.819 61.119,301.813 61.641,301.768 61.900 C 301.723 62.159,301.949 62.208,302.272 62.009 C 302.797 61.684,303.106 62.423,302.925 63.571 C 302.888 63.807,303.129 64.000,303.462 64.000 C 303.795 64.000,303.909 64.257,303.714 64.571 C 303.520 64.886,303.661 65.143,304.027 65.143 C 304.394 65.143,304.546 65.529,304.365 66.000 C 304.184 66.471,304.258 66.857,304.529 66.857 C 305.029 66.857,305.162 67.818,305.162 71.429 C 305.162 75.039,305.029 76.000,304.529 76.000 C 304.258 76.000,304.184 76.386,304.365 76.857 C 304.546 77.329,304.409 77.714,304.061 77.714 C 303.713 77.714,303.480 77.907,303.542 78.143 C 303.748 78.923,302.790 81.143,302.247 81.143 C 301.954 81.143,301.779 81.352,301.857 81.607 C 302.062 82.273,298.712 85.714,297.859 85.714 C 297.465 85.714,297.143 85.954,297.143 86.247 C 297.143 86.790,294.923 87.748,294.143 87.542 C 293.907 87.480,293.714 87.701,293.714 88.034 C 293.714 88.367,293.457 88.480,293.143 88.286 C 292.829 88.091,292.265 88.122,291.891 88.353 C 291.517 88.584,289.766 88.773,288.000 88.773 C 286.234 88.773,284.483 88.584,284.109 88.353 C 283.735 88.122,283.171 88.091,282.857 88.286 C 282.543 88.480,282.286 88.339,282.286 87.973 C 282.286 87.605,281.888 87.459,281.399 87.647 C 280.834 87.863,280.656 87.755,280.907 87.348 C 281.145 86.963,280.986 86.815,280.508 86.976 C 280.072 87.123,279.374 86.835,278.958 86.336 C 278.355 85.614,278.280 85.603,278.587 86.286 C 278.800 86.757,278.294 86.318,277.463 85.309 C 276.633 84.300,275.128 82.796,274.120 81.965 C 273.111 81.135,272.671 80.629,273.143 80.841 C 273.703 81.094,273.656 80.946,273.009 80.414 C 272.464 79.967,272.185 79.434,272.390 79.229 C 272.594 79.025,272.470 78.857,272.113 78.857 C 271.756 78.857,271.612 78.471,271.793 78.000 C 271.974 77.529,271.822 77.143,271.456 77.143 C 271.090 77.143,270.949 76.886,271.143 76.571 C 271.337 76.257,271.292 75.679,271.042 75.286 C 269.910 73.502,270.811 64.571,272.124 64.571 C 272.407 64.571,272.480 64.314,272.286 64.000 C 272.091 63.686,272.220 63.429,272.571 63.429 C 272.923 63.429,273.050 63.170,272.855 62.853 C 272.659 62.537,272.900 62.124,273.389 61.936 C 273.879 61.748,274.161 61.404,274.017 61.170 C 273.873 60.937,274.517 60.016,275.449 59.123 C 276.381 58.231,277.143 57.726,277.143 58.001 C 277.143 58.276,277.667 57.938,278.308 57.251 C 279.379 56.101,280.161 55.755,281.286 55.932 C 281.521 55.970,281.714 55.728,281.714 55.395 C 281.714 55.062,281.954 54.938,282.246 55.118 C 282.539 55.299,282.905 55.242,283.060 54.991 C 283.431 54.391,292.571 54.335,292.571 54.932 M355.157 54.966 C 355.368 55.177,355.901 55.211,356.342 55.042 C 356.782 54.873,357.143 55.035,357.143 55.401 C 357.143 55.768,357.400 55.909,357.714 55.714 C 358.029 55.520,358.286 55.649,358.286 56.000 C 358.286 56.351,358.543 56.480,358.857 56.286 C 359.171 56.091,359.429 56.205,359.429 56.538 C 359.429 56.871,359.652 57.079,359.924 57.000 C 360.197 56.921,360.904 57.384,361.496 58.027 C 362.087 58.670,362.319 58.799,362.010 58.313 C 361.664 57.768,361.972 57.868,362.811 58.571 C 364.110 59.661,367.429 64.395,367.429 65.158 C 367.429 65.733,335.113 66.161,334.545 65.593 C 334.051 65.099,335.328 62.773,336.781 61.522 C 337.452 60.945,337.614 60.665,337.143 60.900 C 336.671 61.135,336.902 60.651,337.654 59.824 C 338.407 58.997,339.230 58.449,339.483 58.605 C 339.736 58.761,340.226 58.360,340.571 57.714 C 340.917 57.068,341.444 56.690,341.743 56.875 C 342.041 57.059,342.286 56.923,342.286 56.571 C 342.286 56.220,342.543 56.091,342.857 56.286 C 343.171 56.480,343.429 56.351,343.429 56.000 C 343.429 55.649,343.668 55.509,343.961 55.690 C 344.253 55.871,344.647 55.769,344.836 55.463 C 345.025 55.157,345.531 55.042,345.960 55.207 C 346.390 55.372,346.873 55.296,347.033 55.039 C 347.381 54.481,354.606 54.416,355.157 54.966 " stroke="none" fill="#000000" fill-rule="evenodd"></path></g></svg>