<svg id="svg" version="1.1" xmlns="http://www.w3.org/2000/svg" xmlns:xlink="http://www.w3.org/1999/xlink" width="400" height="142.85714285714286" viewBox="0, 0, 400,142.85714285714286"><g id="svgg"><path id="path0" d="M17.964 1.857 L 16.286 3.714 18.143 2.036 C 19.874 0.472,20.263 0.000,19.821 0.000 C 19.723 0.000,18.887 0.836,17.964 1.857 M11.969 8.429 L 10.000 10.571 12.143 8.602 C 14.137 6.769,14.548 6.286,14.112 6.286 C 14.017 6.286,13.052 7.250,11.969 8.429 M5.964 15.000 L 4.286 16.857 6.143 15.179 C 7.874 13.614,8.263 13.143,7.821 13.143 C 7.723 13.143,6.887 13.979,5.964 15.000 M384.710 60.714 L 384.571 101.714 392.143 101.590 L 399.714 101.466 392.432 101.287 L 385.150 101.109 385.000 60.412 L 384.849 19.714 384.710 60.714 M4.857 25.714 C 6.085 26.971,7.218 28.000,7.375 28.000 C 7.532 28.000,6.656 26.971,5.429 25.714 C 4.201 24.457,3.068 23.429,2.911 23.429 C 2.754 23.429,3.630 24.457,4.857 25.714 M11.143 31.429 C 12.370 32.686,13.503 33.714,13.661 33.714 C 13.818 33.714,12.942 32.686,11.714 31.429 C 10.487 30.171,9.354 29.143,9.197 29.143 C 9.039 29.143,9.915 30.171,11.143 31.429 M17.429 37.143 C 18.656 38.400,19.789 39.429,19.946 39.429 C 20.103 39.429,19.228 38.400,18.000 37.143 C 16.772 35.886,15.639 34.857,15.482 34.857 C 15.325 34.857,16.201 35.886,17.429 37.143 M23.714 42.857 C 24.942 44.114,26.075 45.143,26.232 45.143 C 26.389 45.143,25.513 44.114,24.286 42.857 C 23.058 41.600,21.925 40.571,21.768 40.571 C 21.611 40.571,22.487 41.600,23.714 42.857 M30.000 48.571 C 31.228 49.829,32.361 50.857,32.518 50.857 C 32.675 50.857,31.799 49.829,30.571 48.571 C 29.344 47.314,28.211 46.286,28.054 46.286 C 27.897 46.286,28.772 47.314,30.000 48.571 M371.429 50.000 C 372.495 51.100,373.496 52.000,373.653 52.000 C 373.810 52.000,373.066 51.100,372.000 50.000 C 370.934 48.900,369.933 48.000,369.776 48.000 C 369.619 48.000,370.362 48.900,371.429 50.000 M266.535 50.429 L 264.857 52.286 266.714 50.607 C 268.445 49.043,268.834 48.571,268.393 48.571 C 268.294 48.571,267.459 49.407,266.535 50.429 M36.286 54.286 C 37.513 55.543,38.646 56.571,38.803 56.571 C 38.961 56.571,38.085 55.543,36.857 54.286 C 35.630 53.029,34.497 52.000,34.339 52.000 C 34.182 52.000,35.058 53.029,36.286 54.286 M225.865 54.696 C 226.734 54.827,228.019 54.824,228.722 54.688 C 229.425 54.552,228.714 54.445,227.143 54.449 C 225.571 54.453,224.996 54.564,225.865 54.696 M349.294 54.696 C 350.162 54.827,351.448 54.824,352.151 54.688 C 352.854 54.552,352.143 54.445,350.571 54.449 C 349.000 54.453,348.425 54.564,349.294 54.696 M42.571 60.000 C 43.799 61.257,44.932 62.286,45.089 62.286 C 45.246 62.286,44.370 61.257,43.143 60.000 C 41.915 58.743,40.782 57.714,40.625 57.714 C 40.468 57.714,41.344 58.743,42.571 60.000 M176.571 57.893 C 176.571 57.991,177.407 58.827,178.429 59.750 L 180.286 61.429 178.607 59.571 C 177.043 57.840,176.571 57.452,176.571 57.893 M48.857 65.714 C 50.085 66.971,51.218 68.000,51.375 68.000 C 51.532 68.000,50.656 66.971,49.429 65.714 C 48.201 64.457,47.068 63.429,46.911 63.429 C 46.754 63.429,47.630 64.457,48.857 65.714 M355.857 65.561 C 357.193 65.682,359.379 65.682,360.714 65.561 C 362.050 65.441,360.957 65.343,358.286 65.343 C 355.614 65.343,354.521 65.441,355.857 65.561 M335.292 66.118 C 336.003 66.255,337.032 66.250,337.578 66.107 C 338.124 65.964,337.543 65.852,336.286 65.858 C 335.029 65.865,334.582 65.982,335.292 66.118 M241.968 84.286 C 241.968 94.029,242.046 98.095,242.142 93.321 C 242.237 88.548,242.237 80.577,242.142 75.607 C 242.047 70.637,241.969 74.543,241.968 84.286 M257.847 69.143 C 257.847 70.243,257.964 70.693,258.108 70.143 C 258.252 69.593,258.252 68.693,258.108 68.143 C 257.964 67.593,257.847 68.043,257.847 69.143 M196.253 84.571 C 196.253 93.843,196.331 97.636,196.427 93.000 C 196.523 88.364,196.523 80.779,196.427 76.143 C 196.331 71.507,196.253 75.300,196.253 84.571 M257.847 73.714 C 257.847 74.814,257.964 75.264,258.108 74.714 C 258.252 74.164,258.252 73.264,258.108 72.714 C 257.964 72.164,257.847 72.614,257.847 73.714 M365.015 76.991 C 366.359 77.111,368.416 77.110,369.587 76.987 C 370.757 76.864,369.657 76.765,367.143 76.767 C 364.629 76.769,363.671 76.870,365.015 76.991 M343.571 77.559 C 344.750 77.682,346.679 77.682,347.857 77.559 C 349.036 77.436,348.071 77.335,345.714 77.335 C 343.357 77.335,342.393 77.436,343.571 77.559 M275.429 83.714 C 276.495 84.814,277.496 85.714,277.653 85.714 C 277.810 85.714,277.066 84.814,276.000 83.714 C 274.934 82.614,273.933 81.714,273.776 81.714 C 273.619 81.714,274.362 82.614,275.429 83.714 M138.286 82.505 C 138.286 83.118,139.986 86.286,140.315 86.286 C 140.472 86.286,140.176 85.450,139.656 84.429 C 138.596 82.343,138.286 81.908,138.286 82.505 M341.143 85.995 C 341.143 86.386,344.642 88.120,344.903 87.859 C 345.027 87.735,344.232 87.206,343.136 86.683 C 342.040 86.160,341.143 85.851,341.143 85.995 M141.527 88.429 C 142.080 89.450,143.818 91.507,145.389 93.000 L 148.247 95.714 145.404 92.571 C 143.841 90.843,142.102 88.786,141.542 88.000 C 140.558 86.622,140.557 86.637,141.527 88.429 M286.714 88.975 C 287.421 89.111,288.579 89.111,289.286 88.975 C 289.993 88.839,289.414 88.727,288.000 88.727 C 286.586 88.727,286.007 88.839,286.714 88.975 M349.857 88.965 C 350.407 89.109,351.307 89.109,351.857 88.965 C 352.407 88.822,351.957 88.704,350.857 88.704 C 349.757 88.704,349.307 88.822,349.857 88.965 M254.489 96.857 C 254.487 99.686,254.583 100.915,254.703 99.589 C 254.823 98.262,254.825 95.948,254.706 94.446 C 254.588 92.943,254.490 94.029,254.489 96.857 M183.299 98.143 C 183.628 101.460,183.905 101.702,183.955 98.714 C 183.980 97.221,183.794 96.000,183.543 96.000 C 183.292 96.000,183.182 96.964,183.299 98.143 M164.143 101.552 C 165.007 101.683,166.421 101.683,167.286 101.552 C 168.150 101.421,167.443 101.314,165.714 101.314 C 163.986 101.314,163.279 101.421,164.143 101.552 M289.857 101.537 C 290.407 101.680,291.307 101.680,291.857 101.537 C 292.407 101.393,291.957 101.275,290.857 101.275 C 289.757 101.275,289.307 101.393,289.857 101.537 M2.286 123.036 C 2.286 123.134,3.121 123.970,4.143 124.893 L 6.000 126.571 4.322 124.714 C 2.757 122.983,2.286 122.594,2.286 123.036 M6.857 128.179 C 6.857 128.277,7.693 129.113,8.714 130.036 L 10.571 131.714 8.893 129.857 C 7.329 128.126,6.857 127.737,6.857 128.179 M10.857 132.750 C 10.857 132.849,11.693 133.684,12.714 134.607 L 14.571 136.286 12.893 134.429 C 11.329 132.697,10.857 132.309,10.857 132.750 M14.857 137.322 C 14.857 137.420,15.693 138.256,16.714 139.179 L 18.571 140.857 16.893 139.000 C 15.329 137.269,14.857 136.880,14.857 137.322 " stroke="none" fill="#000000" fill-rule="evenodd"></path></g></svg>